<?xml version="1.0" encoding="UTF-8"?>
<svg version="1.1" xmlns="http://www.w3.org/2000/svg" width="3508" height="2482" viewBox="0 0 3508 2482">
<path d="M0 0 C-5.87901247 2.33107658 -11.71003698 4.05701707 -17.85546875 5.53125 C-19.28595802 5.87950081 -19.28595802 5.87950081 -20.74534607 6.23478699 C-23.89106469 6.99697831 -27.03894691 7.74960796 -30.1875 8.5 C-31.82909088 8.89283676 -31.82909088 8.89283676 -33.50384521 9.29360962 C-59.218979 15.43063439 -85.06730665 20.86787328 -111 26 C-112.00446167 26.19895874 -113.00892334 26.39791748 -114.04382324 26.60290527 C-139.67863268 31.665909 -165.40325897 36.14856954 -191.1875 40.375 C-193.12109375 40.69212448 -193.12109375 40.69212448 -195.09375 41.01565552 C-208.34716888 43.1823001 -221.59921392 45.31622561 -234.91313171 47.08114624 C-238.7767118 47.28074326 -238.7767118 47.28074326 -242 49 C-198.56721006 57.0119566 -155.11370913 64.13412448 -111 67 C-110.27192139 67.04732269 -109.54384277 67.09464539 -108.79370117 67.1434021 C-96.44345957 67.92178835 -84.12340609 68.20294584 -71.75 68.1875 C-70.84269135 68.18689575 -69.93538269 68.1862915 -69.00057983 68.18566895 C2.27152968 68.0580346 72.53503389 54.16823447 136.0234375 20.92578125 C138 20 138 20 140 20 C138.26995365 23.76539499 135.99606089 27.13617647 133.6875 30.5625 C133.03479126 31.5361853 133.03479126 31.5361853 132.36889648 32.52954102 C124.39293166 44.39908573 116.26553965 56.16661043 108.15991211 67.94775391 C102.42353017 76.28726071 96.71316495 84.64457998 91 93 C84.39843908 102.65468611 77.7936896 112.30703311 71.16357422 121.94213867 C67.6003442 127.12215052 64.04879736 132.31009212 60.5 137.5 C56.50762949 143.33860758 52.50955536 149.17317996 48.5 155 C42.31576352 163.9879823 36.1579928 172.99402577 30 182 C23.39843908 191.65468611 16.7936896 201.30703311 10.16357422 210.94213867 C6.6003442 216.12215052 3.04879736 221.31009212 -0.5 226.5 C-4.49237051 232.33860758 -8.49044464 238.17317996 -12.5 244 C-18.68423648 252.9879823 -24.8420072 261.99402577 -31 271 C-37.60156092 280.65468611 -44.2063104 290.30703311 -50.83642578 299.94213867 C-54.3996558 305.12215052 -57.95120264 310.31009212 -61.5 315.5 C-65.49237051 321.33860758 -69.49044464 327.17317996 -73.5 333 C-79.68423648 341.9879823 -85.8420072 350.99402577 -92 360 C-98.60156092 369.65468611 -105.2063104 379.30703311 -111.83642578 388.94213867 C-115.3996558 394.12215052 -118.95120264 399.31009212 -122.5 404.5 C-126.49237051 410.33860758 -130.49044464 416.17317996 -134.5 422 C-139.56381178 429.35959093 -144.61007567 436.73110489 -149.65234375 444.10546875 C-151.93425597 447.44274019 -154.21829741 450.77854048 -156.50390625 454.11328125 C-157.36653076 455.37241333 -157.36653076 455.37241333 -158.24658203 456.65698242 C-159.33436545 458.24468133 -160.42254908 459.83210615 -161.51123047 461.41918945 C-165.04943322 466.58519338 -168.53793405 471.78268276 -172 477 C-171.07703125 476.64808594 -170.1540625 476.29617188 -169.203125 475.93359375 C-132.67389431 462.07324566 -96.08967037 451.54473716 -57 448 C-55.97745117 447.9057373 -54.95490234 447.81147461 -53.90136719 447.71435547 C-43.35769859 446.84836799 -32.82418301 446.75671789 -22.25 446.75 C-20.80602844 446.74898788 -20.80602844 446.74898788 -19.33288574 446.74795532 C50.00471601 446.82447584 117.580275 464.26502593 183 486 C183.86008667 486.28532593 184.72017334 486.57065186 185.60632324 486.86462402 C208.2285159 494.37930991 230.70001205 502.29286668 253.125 510.375 C337.90017116 541.28918737 337.90017116 541.28918737 426 560 C426.77633789 560.11424316 427.55267578 560.22848633 428.35253906 560.34619141 C473.47092448 566.86758544 519.72948953 560.61063767 560 539 C561.15757812 538.39671875 562.31515625 537.7934375 563.5078125 537.171875 C578.62329418 528.97714917 591.7111039 517.93258863 604 506 C604.57347168 505.45230957 605.14694336 504.90461914 605.73779297 504.34033203 C613.79799103 496.63201165 621.01727613 488.63258963 627.70751953 479.71142578 C628.99297941 478.00929624 630.30206631 476.32855654 631.62109375 474.65234375 C637.11079618 467.65716654 642.18038122 460.47175537 647 453 C647.66 453.33 648.32 453.66 649 454 C638.49740985 481.13450541 627.22739666 507.08367159 609 530 C607.99453125 531.31097656 607.99453125 531.31097656 606.96875 532.6484375 C580.63962154 566.14930617 544.19889583 585.72793565 502.875 594.25 C502.14933838 594.40114258 501.42367676 594.55228516 500.67602539 594.70800781 C483.79056594 597.95994066 466.9565644 598.37038358 449.8125 598.3125 C448.66293823 598.31034485 447.51337646 598.3081897 446.32897949 598.30596924 C428.02071945 598.25100951 410.15275709 597.51732104 392 595 C390.49843649 594.79883739 388.99680564 594.59817699 387.49511719 594.39794922 C336.60587637 587.55039341 286.47200706 576.08053333 236.48828125 564.49609375 C158.81903864 546.50469968 80.8944805 529.13350575 1.3125 522.25 C0.63203613 522.19074341 -0.04842773 522.13148682 -0.74951172 522.07043457 C-20.44056824 520.38376484 -40.11610195 519.79164261 -59.875 519.8125 C-60.94371338 519.81310425 -62.01242676 519.8137085 -63.11352539 519.81433105 C-146.53804919 519.94166355 -243.31027231 534.87351487 -314 582 C-314.99 581.67 -315.98 581.34 -317 581 C-307.47752854 565.92981314 -297.78462707 550.97761556 -288.01025391 536.06982422 C-279.28664727 522.74815434 -270.64510045 509.37269198 -262 496 C-255.62507479 486.13893341 -249.23842272 476.28565524 -242.83642578 466.44213867 C-239.38396676 461.13258998 -235.93849202 455.81860315 -232.5 450.5 C-227.95694887 443.4728829 -223.39815885 436.45608931 -218.8359375 429.44140625 C-215.38365615 424.13209204 -211.93833272 418.81835675 -208.5 413.5 C-204.50930733 407.32726192 -200.50751303 401.16183064 -196.5 395 C-190.65277062 386.00896018 -184.82273792 377.00691451 -179 368 C-172.62507479 358.13893341 -166.23842272 348.28565524 -159.83642578 338.44213867 C-156.38396676 333.13258998 -152.93849202 327.81860315 -149.5 322.5 C-145.50930733 316.32726192 -141.50751303 310.16183064 -137.5 304 C-131.65277062 295.00896018 -125.82273792 286.00691451 -120 277 C-113.62507479 267.13893341 -107.23842272 257.28565524 -100.83642578 247.44213867 C-97.38396676 242.13258998 -93.93849202 236.81860315 -90.5 231.5 C-85.95694887 224.4728829 -81.39815885 217.45608931 -76.8359375 210.44140625 C-73.38365615 205.13209204 -69.93833272 199.81835675 -66.5 194.5 C-62.50930733 188.32726192 -58.50751303 182.16183064 -54.5 176 C-48.65277062 167.00896018 -42.82273792 158.00691451 -37 149 C-29.01886821 136.65436935 -21.01614561 124.32292693 -13 112 C-13.61069336 112.16081055 -14.22138672 112.32162109 -14.85058594 112.48730469 C-31.75758343 116.88174489 -48.64357407 120.00395008 -66 122 C-66.90435791 122.1045752 -67.80871582 122.20915039 -68.74047852 122.31689453 C-78.89896602 123.3245415 -89.11427628 123.24377134 -99.3125 123.25 C-100.80573288 123.25101212 -100.80573288 123.25101212 -102.32913208 123.25204468 C-172.77278397 123.17657866 -239.86178012 102.56768422 -306.22322083 81.03587341 C-309.17591538 80.07786056 -312.12878914 79.12040333 -315.08183289 78.16346741 C-316.57058774 77.68100154 -318.05934201 77.19853389 -319.5480957 76.71606445 C-320.65757395 76.35655244 -320.65757395 76.35655244 -321.7894659 75.98977757 C-326.23749979 74.54786625 -330.68390897 73.10107064 -335.12912273 71.65048981 C-337.93054903 70.73713958 -340.73308761 69.82723802 -343.53587914 68.91808701 C-344.85263461 68.49010173 -346.16890175 68.06061075 -347.48464394 67.62952042 C-349.30683685 67.03268558 -351.13092121 66.44163494 -352.95507812 65.85083008 C-353.98185669 65.5161824 -355.00863525 65.18153473 -356.06652832 64.83674622 C-361.27145953 63.35208675 -365.74646617 62.87529599 -371.13549805 63.3737793 C-372.34286621 63.48120956 -373.55023437 63.58863983 -374.79418945 63.69932556 C-376.10347412 63.82304031 -377.41275879 63.94675507 -378.76171875 64.07421875 C-380.16072814 64.20018737 -381.55981926 64.32525109 -382.95898438 64.44947815 C-385.96118232 64.71668831 -388.96303785 64.98736072 -391.96469116 65.26062012 C-400.02610575 65.9921212 -408.09078861 66.6858257 -416.15625 67.37109375 C-416.98269201 67.44132374 -417.80913403 67.51155373 -418.66061974 67.5839119 C-435.98840976 69.04912697 -453.32788347 70.23482998 -470.6875 71.25 C-471.37936527 71.29047455 -472.07123055 71.3309491 -472.78406143 71.37265015 C-492.13937296 72.49919655 -511.50157836 73.43184024 -530.875 74.1875 C-532.46326599 74.25200348 -532.46326599 74.25200348 -534.08361816 74.31781006 C-544.72243312 74.74655195 -555.32505285 75.04494385 -565.97265625 74.91796875 C-568.5043372 74.90880912 -571.03599397 74.9036742 -573.56768799 74.89981079 C-575.8334315 74.87608955 -578.08934291 74.78677559 -580.35302734 74.69213867 C-588.47728186 74.55323466 -593.34586385 76.16268579 -599.15234375 81.734375 C-600.66697154 83.28024468 -602.13790073 84.85220464 -603.58636475 86.46014404 C-605.81692891 88.88987088 -608.22547629 91.1128288 -610.625 93.375 C-616.19151024 98.99019691 -620.99588923 105.08868495 -625.76611328 111.37695312 C-627.55206432 113.72618196 -629.37046329 116.04977797 -631.1875 118.375 C-632.12537819 119.58303982 -633.06305076 120.79123955 -634 122 C-635.15049192 118.54852425 -634.9063179 118.13127436 -633.48046875 114.96484375 C-633.12227051 114.16369141 -632.76407227 113.36253906 -632.39501953 112.53710938 C-631.99653809 111.67923828 -631.59805664 110.82136719 -631.1875 109.9375 C-630.7838623 109.05513672 -630.38022461 108.17277344 -629.96435547 107.26367188 C-625.11955305 96.84929797 -619.95549688 86.18237786 -613 77 C-614.72454659 76.97240852 -614.72454659 76.97240852 -616.4839325 76.94425964 C-694.50323413 75.6877485 -772.21204321 73.64700057 -850.02539062 67.52929688 C-896.03609653 63.91498263 -942.98239823 62.84174894 -989 67 C-990.50404555 67.13047904 -992.00811562 67.26067571 -993.51220703 67.390625 C-1060.47466733 73.25684935 -1126.24384615 86.67268948 -1190 108 C-1190.97691803 108.3261731 -1190.97691803 108.3261731 -1191.97357178 108.65893555 C-1225.61978824 119.92605411 -1258.26041422 133.55601087 -1290.14709473 149.09765625 C-1291.90743075 149.95491983 -1293.66996529 150.80766458 -1295.43261719 151.66015625 C-1309.25264642 158.35823297 -1322.72864036 165.55258775 -1336.00878906 173.26513672 C-1338.02022362 174.43174249 -1340.03527612 175.59213027 -1342.05371094 176.74658203 C-1390.01350942 204.18749766 -1436.01371926 236.92278416 -1476.38745117 274.72875977 C-1479.12390401 277.28913331 -1481.89891236 279.78556343 -1484.73852539 282.23144531 C-1488.75186787 285.73753125 -1492.55538662 289.41019171 -1496.31640625 293.18359375 C-1497.3066404 294.17239281 -1497.3066404 294.17239281 -1498.31687927 295.1811676 C-1499.70035506 296.56396835 -1501.08259083 297.94801076 -1502.46362305 299.33325195 C-1504.55731669 301.43230343 -1506.65629874 303.5259594 -1508.75585938 305.61914062 C-1510.10969571 306.97363786 -1511.46322175 308.32844531 -1512.81640625 309.68359375 C-1513.43326797 310.29843124 -1514.0501297 310.91326874 -1514.6856842 311.54673767 C-1518.4431644 315.32414774 -1522.01273245 319.2207652 -1525.49317932 323.25506592 C-1527.41317364 325.47846488 -1529.3929561 327.64440217 -1531.375 329.8125 C-1535.21684342 334.07474716 -1538.89118753 338.44243569 -1542.49609375 342.90625 C-1544.32809794 345.16981836 -1546.17326857 347.41757245 -1548.03515625 349.65625 C-1554.4850694 357.44977362 -1560.55658467 365.37841706 -1566.21801758 373.76806641 C-1567.43229097 375.54465432 -1568.71021771 377.27744779 -1570 379 C-1570.66 379 -1571.32 379 -1572 379 C-1569.89713993 371.11620649 -1566.9127081 363.80440166 -1563.5625 356.375 C-1563.03317871 355.19639404 -1562.50385742 354.01778809 -1561.95849609 352.8034668 C-1552.76839302 332.5099024 -1542.46988425 313.09490528 -1531 294 C-1530.04150825 292.38681286 -1529.0831652 290.77353736 -1528.125 289.16015625 C-1521.52781041 278.13120334 -1514.3904815 267.51085864 -1507 257 C-1506.46084961 256.23123535 -1505.92169922 255.4624707 -1505.36621094 254.67041016 C-1498.100079 244.34795874 -1490.45658743 234.43064471 -1482.40576172 224.70996094 C-1480.48627763 222.3751109 -1478.61866567 220.00061061 -1476.75 217.625 C-1473.36918401 213.38296562 -1469.78719653 209.35509095 -1466.1328125 205.34765625 C-1464.32725829 203.36022387 -1462.56263855 201.3484652 -1460.8125 199.3125 C-1452.43226188 189.72135592 -1443.61168606 180.52159609 -1434.625 171.5 C-1433.98377197 170.85417969 -1433.34254395 170.20835937 -1432.68188477 169.54296875 C-1428.86274595 165.73614497 -1424.92469028 162.12290114 -1420.84375 158.59863281 C-1418.41208939 156.49024912 -1416.05144137 154.30879654 -1413.6875 152.125 C-1408.28499945 147.20486557 -1402.71013746 142.55742254 -1397 138 C-1396.48630859 137.58669434 -1395.97261719 137.17338867 -1395.44335938 136.74755859 C-1364.01698913 111.48676099 -1329.9975067 90.10802592 -1294 72 C-1293.10587402 71.54560547 -1292.21174805 71.09121094 -1291.29052734 70.62304688 C-1243.20761378 46.31489999 -1190.91178352 31.26948082 -1138 22 C-1136.95859863 21.8148584 -1135.91719727 21.6297168 -1134.84423828 21.43896484 C-1065.99956594 9.46939251 -994.18052608 7.55532122 -924.4527359 7.74205017 C-921.24264021 7.75017686 -918.03255167 7.75509423 -914.82244873 7.75939941 C-884.21738101 7.8065749 -853.67429123 8.09430886 -823.11102295 9.82611084 C-819.89745527 10.00573169 -816.68348011 10.17518317 -813.46923828 10.34228516 C-782.93499879 11.93884402 -752.42797362 13.95817833 -721.92150712 16.00949025 C-719.73016762 16.15679541 -717.53881736 16.30393957 -715.34746361 16.45103264 C-688.02643974 18.28504245 -688.02643974 18.28504245 -675.34262085 19.15505981 C-645.98636421 21.16854293 -616.6302239 23.12184895 -587.24316406 24.63410759 C-584.60634206 24.76996217 -581.96961976 24.90776781 -579.33300781 25.04763985 C-575.70671114 25.23838905 -572.08007731 25.41962029 -568.453125 25.59741211 C-567.38974915 25.65408743 -566.32637329 25.71076275 -565.23077393 25.7691555 C-558.27248442 26.09339766 -552.07051205 25.95784678 -545.4609375 23.51171875 C-544.64439697 23.21934326 -543.82785645 22.92696777 -542.98657227 22.62573242 C-542.12475342 22.31611572 -541.26293457 22.00649902 -540.375 21.6875 C-487.36857842 3.44717826 -423.74486276 11.43646235 -370.02099609 23.54736328 C-368.55708332 23.85100043 -367.09145372 24.14638216 -365.625 24.4375 C-363.94393661 24.77581848 -363.94393661 24.77581848 -362.22891235 25.12097168 C-352.61114729 26.8951379 -343.42924021 27.20477864 -333.6640625 26.765625 C-332.13482712 26.7080985 -330.60554882 26.65170337 -329.07623291 26.59635925 C-325.14632535 26.44911655 -321.21767081 26.28090792 -317.28902435 26.10337448 C-315.08945368 26.00403981 -312.88976172 25.90807334 -310.69000244 25.8130188 C-300.70646121 25.37711944 -290.72800985 24.85944266 -280.75 24.3125 C-279.97527344 24.27033859 -279.20054688 24.22817719 -278.40234375 24.18473816 C-195.00691587 19.64079741 -111.82855507 12.1533028 -28.93008327 2.00645638 C-25.77651672 1.62102656 -22.62242068 1.24003974 -19.46827126 0.85941315 C-17.30700709 0.59630807 -15.1467781 0.32565781 -12.98649597 0.05462646 C-11.70648209 -0.10012146 -10.4264682 -0.25486938 -9.10766602 -0.41430664 C-7.43680687 -0.62126915 -7.43680687 -0.62126915 -5.73219299 -0.83241272 C-3 -1 -3 -1 0 0 Z " fill="#C89747" transform="translate(1893,1015)"/>
<path d="M0 0 C2.27097444 -0.00692526 4.5418826 -0.01856897 6.81283188 -0.03116226 C38.85099417 -0.18409736 70.31373684 2.80680716 102.07299423 6.93041611 C103.40542235 7.1017464 104.73787112 7.27291619 106.0703392 7.44393539 C184.93505231 17.58675643 263.42645804 30.95270668 464.51049423 75.36791611 C465.23416939 75.54390335 465.95784454 75.71989059 466.70344925 75.90121078 C508.86034359 86.15935444 550.83709596 97.07369457 592.77636337 108.1845665 C596.64473855 109.20934944 600.51314195 110.23402567 604.38158798 111.25854111 C605.34031122 111.51245558 606.29903446 111.76637005 607.28680992 112.0279789 C639.94831383 120.6753409 672.66294264 129.11887361 705.38482666 137.53441906 C710.68665075 138.89808983 715.98769504 140.26475354 721.28832626 141.63305283 C814.48126454 165.68083373 908.4152334 187.21829949 1194.68944931 217.98998642 C1195.5907457 218.01286728 1196.49204208 218.03574814 1197.42065048 218.05932236 C1198.17483261 218.07164902 1198.92901474 218.08397568 1199.70605087 218.09667587 C1201.51049423 218.36791611 1201.51049423 218.36791611 1203.51049423 220.36791611 C1162.81305892 224.64463933 1122.30631586 225.74847523 1081.39517212 225.68597412 C1077.64262728 225.68033287 1073.89008696 225.67751219 1070.13753891 225.67489243 C1032.48005093 225.63671445 994.97935331 225.08525298 957.39495468 222.62115097 C954.03007705 222.40178863 950.66491209 222.18911521 947.29938316 221.98011875 C872.39394985 217.326443 797.7245789 209.66071193 378.13074017 138.98059177 C375.81196649 138.52276 373.4931764 138.06501141 371.17438126 137.60728836 C366.48186089 136.68098648 361.7893758 135.75450601 357.09692001 134.82787704 C356.31673948 134.67381378 355.53655895 134.51975051 354.73273659 134.36101866 C345.54338028 132.54620476 336.35461778 130.72843409 327.16672915 128.90620422 C296.08910177 122.74280577 265.00018162 116.65013037 233.86521316 110.78228474 C231.72305448 110.37852949 229.58098619 109.97429735 227.43892479 109.5700264 C212.41601114 106.73670832 197.38298456 103.9643655 182.33178329 101.28539658 C181.04697823 101.0567038 179.76217316 100.82801102 178.4384346 100.59238815 C119.92299757 90.22885839 60.99843434 81.80576838 1.69799423 77.61791611 C0.85803909 77.55847824 0.01808395 77.49904037 -0.84732437 77.43780136 C-24.3758161 75.8051372 -47.90716837 75.15826536 -71.48950577 75.18041611 C-72.69739761 75.18102036 -73.90528946 75.1816246 -75.14978409 75.18224716 C-174.61335707 75.31593914 -273.45160861 90.88045405 -595.31561661 181.3184166 C-599.34250024 182.64997299 -603.37168837 183.97446474 -607.40091324 185.29891586 C-633.31837577 193.82368692 -659.06612999 202.78240615 -684.75757217 211.96410751 C-691.57544668 214.40008798 -698.39681602 216.82620035 -705.21869278 219.25094223 C-716.21221473 223.15847722 -727.20519542 227.06753324 -738.19653702 230.98119736 C-739.27787415 231.36591705 -740.35921127 231.75063675 -741.47331619 232.14701462 C-743.01430733 232.69589088 -743.01430733 232.69589088 -744.5864296 233.25585556 C-746.05700317 233.77667206 -746.05700317 233.77667206 -747.55728531 234.3080101 C-749.5767872 235.03799688 -751.58787456 235.79154933 -753.59140396 236.56429672 C-754.57444504 236.94059219 -755.55748611 237.31688766 -756.57031631 237.70458603 C-757.88312828 238.21948845 -757.88312828 238.21948845 -759.2224617 238.74479294 C-761.48950577 239.36791611 -761.48950577 239.36791611 -764.48950577 238.36791611 C-693.31311443 201.44693542 -693.31311443 201.44693542 -657.09595108 185.01733017 C-653.00431921 183.14601519 -648.93010854 181.23939303 -644.85669327 179.32885361 C-621.35933591 168.33072108 -597.60470582 158.00112839 -573.72250748 147.86854172 C-568.3256565 145.578125 -562.93573835 143.27344247 -557.55981827 140.93432236 C-537.71170545 132.30884684 -517.62759511 124.28755292 -497.48950577 116.36791611 C-496.68279434 116.05060532 -495.87608292 115.73329453 -495.04492569 115.40636826 C-419.95558706 85.9067121 -343.5077404 59.97582737 -265.48950577 39.36791611 C-264.52500504 39.11288315 -263.5605043 38.85785019 -262.56677628 38.59508896 C-201.2701517 22.43189108 -139.01263182 10.0493507 -75.91345596 3.61791611 C-73.58589691 3.37785764 -71.25985673 3.12635453 -68.93384171 2.87182236 C-45.99828186 0.40166734 -23.04629015 0.05884331 0 0 Z " fill="#CFA04B" transform="translate(1847.4895057678223,754.6320838928223)"/>
<path d="M0 0 C5.79197399 -0.00030235 11.58390079 -0.00842774 17.37586093 -0.02069956 C72.15749359 -0.13399382 126.84792075 0.67773659 181.5516727 3.87675375 C183.7253038 4.00343507 185.89907564 4.12746155 188.07288241 4.25108999 C295.32089286 10.37492987 402.84918555 22.13330397 587.25141025 68.47344106 C589.43677248 69.16498512 591.62351669 69.85201022 593.81043124 70.53862661 C640.9967824 85.41301404 687.25279054 104.75215513 730.00037265 129.74761099 C731.27521518 130.48080557 731.27521518 130.48080557 732.5758121 131.22881216 C733.72956332 131.92067617 733.72956332 131.92067617 734.90662265 132.62651724 C735.91692538 133.22508535 735.91692538 133.22508535 736.94763827 133.83574575 C738.92224582 135.55172938 739.08447452 136.63042528 739.50037265 139.18511099 C738.83687383 141.909202 738.09346464 144.47800083 737.21131015 147.13042349 C736.82961421 148.31506689 736.82961421 148.31506689 736.44020724 149.52364248 C735.59742035 152.12328318 734.73766124 154.71687849 733.87537265 157.31011099 C733.58204043 158.20169912 733.28870822 159.09328726 732.98648715 160.01189321 C704.51468578 246.47100913 663.76662548 331.20691763 601.18787265 398.18511099 C600.54245517 398.87902944 599.89703769 399.5729479 599.2320621 400.28789419 C594.89162228 404.88943816 590.33417614 409.10749152 585.50037265 413.18511099 C584.63158481 413.91963491 584.63158481 413.91963491 583.7452457 414.6689977 C582.16889903 415.99338063 580.58632284 417.3097517 579.00037265 418.62261099 C578.46412265 419.06798208 577.92787265 419.51335317 577.37537265 419.97222036 C576.08448273 421.04412003 574.79254693 422.11475996 573.50037265 423.18511099 C572.84037265 422.85511099 572.18037265 422.52511099 571.50037265 422.18511099 C572.39175937 421.07329458 572.39175937 421.07329458 573.3011539 419.93901724 C605.14619247 379.69214288 629.78094273 327.55305176 623.68030429 275.14824575 C619.80853956 245.24175739 607.50945185 219.62519981 587.50037265 197.18511099 C586.92029452 196.48386099 586.3402164 195.78261099 585.74256015 195.06011099 C562.93748962 167.55650833 529.88854017 149.88435218 498.50037265 134.18511099 C497.73370273 133.79516958 496.9670328 133.40522817 496.17713046 133.00347036 C422.34574001 95.53251722 335.30635899 78.91106685 -319.43170416 28.75533903 C-324.17895168 28.67690634 -328.92619037 28.59795497 -333.67342496 28.51874441 C-335.68776421 28.4851596 -337.70210359 28.45158225 -339.71644306 28.41801053 C-341.71770931 28.38465013 -343.71897507 28.35126061 -345.72024083 28.31787103 C-353.52018819 28.18821329 -361.32018995 28.06287537 -369.12026429 27.94110578 C-373.97075911 27.86475562 -378.82120191 27.78540435 -383.67163777 27.70540518 C-385.91796046 27.66904427 -388.16430484 27.63399459 -390.41067052 27.60039419 C-402.137898 27.42448037 -413.80717419 27.14774398 -425.49962735 26.18511099 C-422.62239518 24.2669562 -421.69320939 23.88386642 -418.4488461 23.5024938 C-417.62145932 23.40164984 -416.79407254 23.30080587 -415.94161344 23.19690603 C-415.03263303 23.09504492 -414.12365262 22.9931838 -413.18712735 22.88823599 C-411.73821607 22.71725645 -411.73821607 22.71725645 -410.26003385 22.54282278 C-407.00764958 22.16338275 -403.75387908 21.79816929 -400.49962735 21.43511099 C-399.36063993 21.30605367 -398.2216525 21.17699636 -397.0481503 21.04402822 C-319.20343961 12.25298733 -240.94630831 7.0741467 -129.74962735 1.99761099 C-128.77508603 1.96068136 -127.80054471 1.92375173 -126.79647183 1.88570303 C-120.8444012 1.66449847 -114.89183339 1.47116457 -108.93834805 1.2922582 C-106.57279637 1.2185499 -104.20739961 1.13975018 -101.84215665 1.05672354 C-67.90585604 -0.12847013 -33.95216937 -0.00259992 0 0 Z " fill="#D93236" transform="translate(2447.499627351761,992.8148890137672)"/>
<path d="M0 0 C3.21009569 0.00812669 6.42018423 0.01304405 9.63028717 0.01734924 C40.2353549 0.06452473 70.77844467 0.35225869 101.34171295 2.08406067 C104.55528063 2.26368152 107.76925579 2.433133 110.98349762 2.60023499 C141.51773711 4.19679385 172.02476228 6.21612816 202.53122878 8.26744008 C204.72256828 8.41474524 206.91391854 8.5618894 209.10527229 8.70898247 C236.43067292 10.54328609 236.43067292 10.54328609 249.11011505 11.41300964 C279.83880358 13.5207652 310.56352773 15.51634771 341.3277359 17.03529358 C343.27945709 17.13174762 343.27945709 17.13174762 345.27060699 17.23015022 C348.91192822 17.40856837 352.55336712 17.58415602 356.1949234 17.75770569 C357.80547104 17.83497674 357.80547104 17.83497674 359.44855499 17.91380882 C360.43590637 17.95973482 361.42325775 18.00566082 362.44052887 18.05297852 C363.29323364 18.09288878 364.14593842 18.13279905 365.02448273 18.17391872 C367.50260877 18.25967571 369.97333444 18.27247507 372.4527359 18.25794983 C372.4527359 18.91794983 372.4527359 19.57794983 372.4527359 20.25794983 C371.42535309 20.75423889 370.39797028 21.25052795 369.33945465 21.76185608 C348.45250838 31.9511655 331.08246721 44.79891196 317.3355484 63.71888733 C315.4527359 66.25794983 315.4527359 66.25794983 313.4527359 68.25794983 C311.37801361 68.50518799 311.37801361 68.50518799 308.77085114 68.50086975 C307.78594193 68.50389099 306.80103271 68.50691223 305.78627777 68.51002502 C304.16517845 68.49932983 304.16517845 68.49932983 302.51132965 68.48841858 C301.38350571 68.48845886 300.25568176 68.48849915 299.09368134 68.48854065 C295.35908646 68.48510936 291.62477291 68.46608181 287.8902359 68.44544983 C285.27207249 68.43654855 282.65390841 68.42784308 280.03574371 68.41932678 C272.17450433 68.38739406 264.31372122 68.32873318 256.4527359 68.25794983 C254.81887939 68.24344788 254.81887939 68.24344788 253.15201569 68.22865295 C204.7687868 67.76954551 156.34100651 65.67004439 108.0777359 62.25794983 C106.88208008 62.1736673 105.68642426 62.08938477 104.45453644 62.00254822 C94.44328127 61.2934867 84.43283821 60.57388091 74.42734528 59.7872467 C28.41663937 56.17293246 -18.52966233 55.09969877 -64.5472641 59.25794983 C-66.05130965 59.38842887 -67.55537972 59.51862554 -69.05947113 59.64857483 C-136.02193143 65.51479918 -201.79111024 78.93063931 -265.5472641 100.25794983 C-266.52418213 100.58412292 -266.52418213 100.58412292 -267.52083588 100.91688538 C-301.16705234 112.18400394 -333.80767832 125.8139607 -365.69435883 141.35560608 C-367.45469485 142.21286966 -369.21722939 143.06561441 -370.97988129 143.91810608 C-384.79991052 150.6161828 -398.27590446 157.81053758 -411.55605316 165.52308655 C-413.56748772 166.68969232 -415.58254022 167.85008009 -417.60097504 169.00453186 C-465.56077352 196.44544749 -511.56098335 229.18073399 -551.93471527 266.98670959 C-554.67116811 269.54708314 -557.44617646 272.04351326 -560.28578949 274.48939514 C-564.29913197 277.99548107 -568.10265072 281.66814154 -571.86367035 285.44154358 C-572.8539045 286.43034264 -572.8539045 286.43034264 -573.86414337 287.43911743 C-575.24761916 288.82191818 -576.62985493 290.20596058 -578.01088715 291.59120178 C-580.10458079 293.69025326 -582.20356284 295.78390923 -584.30312347 297.87709045 C-585.65695981 299.23158769 -587.01048585 300.58639514 -588.36367035 301.94154358 C-588.98053207 302.55638107 -589.5973938 303.17121857 -590.2329483 303.8046875 C-593.9904285 307.58209757 -597.55999655 311.47871503 -601.04044342 315.51301575 C-602.96043774 317.73641471 -604.9402202 319.902352 -606.9222641 322.07044983 C-610.76410752 326.33269699 -614.43845163 330.70038552 -618.04335785 335.16419983 C-619.87536204 337.42776819 -621.72053267 339.67552228 -623.58242035 341.91419983 C-630.0323335 349.70772345 -636.10384877 357.63636689 -641.76528168 366.02601624 C-642.97955507 367.80260415 -644.25748181 369.53539762 -645.5472641 371.25794983 C-646.2072641 371.25794983 -646.8672641 371.25794983 -647.5472641 371.25794983 C-645.44440403 363.37415632 -642.4599722 356.06235148 -639.1097641 348.63294983 C-638.58044281 347.45434387 -638.05112152 346.27573792 -637.50576019 345.06141663 C-628.31565712 324.76785223 -618.01714835 305.35285511 -606.5472641 286.25794983 C-605.58877235 284.64476269 -604.6304293 283.03148719 -603.6722641 281.41810608 C-597.07507451 270.38915317 -589.9377456 259.76880847 -582.5472641 249.25794983 C-582.00811371 248.48918518 -581.46896332 247.72042053 -580.91347504 246.92835999 C-573.6473431 236.60590857 -566.00385153 226.68859454 -557.95302582 216.96791077 C-556.03354173 214.63306073 -554.16592976 212.25856044 -552.2972641 209.88294983 C-548.91644811 205.64091545 -545.33446063 201.61304077 -541.6800766 197.60560608 C-539.87452239 195.6181737 -538.10990265 193.60641503 -536.3597641 191.57044983 C-527.97952598 181.97930575 -519.15895016 172.77954592 -510.1722641 163.75794983 C-509.53103607 163.11212952 -508.88980804 162.4663092 -508.22914886 161.80091858 C-504.41001005 157.9940948 -500.47195438 154.38085097 -496.3910141 150.85658264 C-493.95935349 148.74819895 -491.59870547 146.56674637 -489.2347641 144.38294983 C-483.83226354 139.4628154 -478.25740156 134.81537237 -472.5472641 130.25794983 C-472.03357269 129.84464417 -471.51988129 129.4313385 -470.99062347 129.00550842 C-439.56425323 103.74471082 -405.5447708 82.36597575 -369.5472641 64.25794983 C-368.65313812 63.8035553 -367.75901215 63.34916077 -366.83779144 62.8809967 C-318.75487788 38.57284982 -266.45904761 23.52743065 -213.5472641 14.25794983 C-212.50586273 14.07280823 -211.46446136 13.88766663 -210.39150238 13.69691467 C-141.54683004 1.72734234 -69.72779018 -0.18672896 0 0 Z " fill="#D93236" transform="translate(968.5472640991211,1022.7420501708984)"/>
<path d="M0 0 C1.44397156 -0.00101212 1.44397156 -0.00101212 2.91711426 -0.00204468 C72.25471601 0.07447584 139.830275 17.51502593 205.25 39.25 C206.11008667 39.53532593 206.97017334 39.82065186 207.85632324 40.11462402 C230.4785159 47.62930991 252.95001205 55.54286668 275.375 63.625 C360.15017116 94.53918737 360.15017116 94.53918737 448.25 113.25 C449.41450684 113.42136475 449.41450684 113.42136475 450.60253906 113.59619141 C495.72092448 120.11758544 541.97948953 113.86063767 582.25 92.25 C583.98636719 91.34507813 583.98636719 91.34507813 585.7578125 90.421875 C600.87329418 82.22714917 613.9611039 71.18258863 626.25 59.25 C626.82347168 58.70230957 627.39694336 58.15461914 627.98779297 57.59033203 C636.04799103 49.88201165 643.26727613 41.88258963 649.95751953 32.96142578 C651.24297941 31.25929624 652.55206631 29.57855654 653.87109375 27.90234375 C659.36079618 20.90716654 664.43038122 13.72175537 669.25 6.25 C669.91 6.58 670.57 6.91 671.25 7.25 C660.74740985 34.38450541 649.47739666 60.33367159 631.25 83.25 C630.24453125 84.56097656 630.24453125 84.56097656 629.21875 85.8984375 C602.88962154 119.39930617 566.44889583 138.97793565 525.125 147.5 C524.39933838 147.65114258 523.67367676 147.80228516 522.92602539 147.95800781 C506.04056594 151.20994066 489.2065644 151.62038358 472.0625 151.5625 C470.33815735 151.55926727 470.33815735 151.55926727 468.57897949 151.55596924 C450.27071945 151.50100951 432.40275709 150.76732104 414.25 148.25 C412.74843649 148.04883739 411.24680564 147.84817699 409.74511719 147.64794922 C358.85587637 140.80039341 308.72200706 129.33053333 258.73828125 117.74609375 C181.06903864 99.75469968 103.1444805 82.38350575 23.5625 75.5 C22.88203613 75.44074341 22.20157227 75.38148682 21.50048828 75.32043457 C1.80943176 73.63376484 -17.86610195 73.04164261 -37.625 73.0625 C-38.69371338 73.06310425 -39.76242676 73.0637085 -40.86352539 73.06433105 C-127.50915347 73.19657998 -209.03431365 92.8017866 -286.41015625 132.06420898 C-288.5198929 133.13338583 -290.63341578 134.19445749 -292.75 135.25 C-291.37833912 132.17780048 -289.81111523 130.05455345 -287.44140625 127.67578125 C-286.78221191 127.01263916 -286.12301758 126.34949707 -285.44384766 125.66625977 C-284.38883057 124.62489868 -284.38883057 124.62489868 -283.3125 123.5625 C-282.5911084 122.84570068 -281.8697168 122.12890137 -281.12646484 121.39038086 C-276.3645617 116.70853197 -271.4970661 112.37352967 -266.24609375 108.24609375 C-263.70799737 106.21641104 -261.3261597 104.07783204 -258.9375 101.875 C-252.81405234 96.31085937 -246.30953678 91.28346831 -239.75 86.25 C-239.13914551 85.77691406 -238.52829102 85.30382813 -237.89892578 84.81640625 C-216.46735107 68.24160705 -193.4881611 54.23655602 -169.8125 41.125 C-169.00224365 40.67552002 -168.1919873 40.22604004 -167.35717773 39.76293945 C-162.90030928 37.32386887 -158.43364947 35.21374701 -153.75 33.25 C-152.09827141 32.38617998 -150.45242419 31.51102539 -148.8125 30.625 C-113.89257038 13.14339955 -73.39026447 4.75398405 -34.75 1.25 C-33.72745117 1.1557373 -32.70490234 1.06147461 -31.65136719 0.96435547 C-21.10769859 0.09836799 -10.57418301 0.00671789 0 0 Z " fill="#C99947" transform="translate(1870.75,1461.75)"/>
</svg>